<svg width="50" height="50" viewBox="0 0 50 50" fill="none" xmlns="http://www.w3.org/2000/svg">
<path fill-rule="evenodd" clip-rule="evenodd" d="M25 48C37.7025 48 48 37.7025 48 25C48 12.2975 37.7025 2 25 2C12.2975 2 2 12.2975 2 25C2 37.7025 12.2975 48 25 48ZM25 50C38.8071 50 50 38.8071 50 25C50 11.1929 38.8071 0 25 0C11.1929 0 0 11.1929 0 25C0 38.8071 11.1929 50 25 50Z" fill="#00d37e"/>
<path d="M5 24.9992C5 24.4918 5.41132 24.0805 5.91872 24.0805H8.67487C9.18226 24.0805 9.59359 24.4918 9.59359 24.9992C9.59359 25.5066 9.18226 25.9179 8.67487 25.9179H5.91872C5.41132 25.9179 5 25.5066 5 24.9992Z" fill="#00d37e"/>
<path d="M25 40.4064C25.5074 40.4064 25.9187 40.8177 25.9187 41.3251V44.0813C25.9187 44.5887 25.5074 45 25 45C24.4926 45 24.0813 44.5887 24.0813 44.0813L24.0813 41.3251C24.0813 40.8177 24.4926 40.4064 25 40.4064Z" fill="#00d37e"/>
<path d="M13.7908 11.7194C21.0006 5.67384 31.7628 6.31532 38.196 13.3127C44.8156 20.5128 44.3449 31.7158 37.1449 38.3353C36.7778 38.6728 36.7538 39.244 37.0913 39.6111C37.4288 39.9782 38 40.0022 38.3671 39.6647C46.3014 32.3702 46.82 20.0248 39.5254 12.0905C32.4054 4.34599 20.4732 3.66665 12.528 10.4221L12.4525 9.89385C12.3744 9.34799 11.8686 8.96882 11.3228 9.04696C10.7769 9.1251 10.3977 9.63095 10.4758 10.1768L10.8998 13.1419C10.9779 13.6878 11.4837 14.0669 12.0295 13.9888L12.0509 13.9855L14.9974 13.5639C15.5433 13.4858 15.9225 12.98 15.8444 12.4341C15.7663 11.8883 15.2604 11.5091 14.7146 11.5872L13.7908 11.7194Z" fill="#00d37e"/>
<path fill-rule="evenodd" clip-rule="evenodd" d="M19.0167 14.1127C18.603 14.1127 18.2158 14.2425 17.9754 14.3231L17.9376 14.3357C17.4689 14.492 17.1619 14.8005 16.9941 14.9693L16.9697 14.9937C16.0012 15.9622 16.0767 17.1212 16.291 18.0151H16.0886C15.5986 18.0151 15.2013 18.4123 15.2013 18.9023C15.2013 19.3923 15.5986 19.7896 16.0886 19.7896H16.8246C16.8902 20.0554 16.9097 20.241 16.8959 20.3757C16.821 20.8111 16.6848 21.1749 16.4607 21.455C16.1554 21.8366 15.8553 22.1388 15.4781 22.4438C15.2653 22.5989 15.1241 22.8464 15.1135 23.1272C15.1052 23.3333 15.1683 23.5432 15.3072 23.7169C15.4934 23.9496 15.7728 24.0637 16.0492 24.0486H21.0574C21.5475 24.0486 21.9447 23.6514 21.9447 23.1614C21.9447 22.6714 21.5475 22.2741 21.0574 22.2741H18.0541C18.394 21.7452 18.5626 21.1697 18.6497 20.6468L18.6527 20.6289L18.655 20.611C18.6899 20.3317 18.6744 20.0534 18.634 19.7896H20.0812C20.5712 19.7896 20.9684 19.3923 20.9684 18.9023C20.9684 18.4123 20.5712 18.0151 20.0812 18.0151H18.1316C18.1114 17.9494 18.0921 17.8846 18.074 17.8201C17.8459 17.0114 17.8808 16.5922 18.2245 16.2484C18.4177 16.0552 18.4588 16.0325 18.4988 16.0191C18.7948 15.9205 18.9205 15.8872 19.0167 15.8872C19.1051 15.8872 19.2183 15.9153 19.4652 15.9962C19.5065 16.0197 19.5595 16.0526 19.617 16.0928C19.7 16.1509 19.7674 16.2069 19.8089 16.2484C20.1554 16.5949 20.7172 16.5949 21.0637 16.2484C21.4102 15.9019 21.4102 15.3402 21.0637 14.9937C20.8076 14.7376 20.4594 14.5075 20.212 14.3839L20.1556 14.3557L20.0958 14.3357L20.0581 14.3231C19.8176 14.2425 19.4304 14.1127 19.0167 14.1127ZM30.341 19.4689C30.6271 19.0712 30.5367 18.5167 30.1389 18.2306C29.7411 17.9444 29.1867 18.0349 28.9005 18.4326L20.028 30.7654C19.7418 31.1632 19.8323 31.7176 20.2301 32.0038C20.6279 32.2899 21.1823 32.1995 21.4685 31.8017L30.341 19.4689ZM29.5585 28C29.5975 28.4123 29.8702 28.7422 30.2209 28.866L32.2468 29.5258C33.2598 29.8557 34.0001 30.8041 34.0001 31.9587C33.9611 33.2783 33.026 34.3917 31.7793 34.5154V35.1752C31.7793 35.6288 31.4286 36 31.0001 36C30.5715 36 30.2209 35.6288 30.2209 35.1752V34.5154H28.7793C28.3507 34.5154 28.0001 34.1443 28.0001 33.6907C28.0001 33.2371 28.3507 32.866 28.7793 32.866H31.3897C31.8962 32.9072 32.3637 32.4948 32.4416 31.9587C32.4027 31.5464 32.1689 31.2165 31.7793 31.134L29.7533 30.4742C28.7403 30.1443 28.0001 29.1959 28.0001 28.0412C28.039 26.7216 28.9741 25.6082 30.2209 25.4845V24.8247C30.2209 24.3711 30.5715 24 31.0001 24C31.4286 24 31.7793 24.3711 31.7793 24.8247V25.4845H33.2209C33.6494 25.4845 34.0001 25.8557 34.0001 26.3093C34.0001 26.7629 33.6494 27.134 33.2209 27.134H30.6105C30.104 27.0515 29.5975 27.4227 29.5585 28Z" fill="#00d37e"/>
</svg>
